<svg width="400" height="400" viewBox="0 0 400 400" xmlns="http://www.w3.org/2000/svg">

  <!-- IKONY — stroke niebieski, transparentne -->
  <g stroke="#2563eb" stroke-width="2" stroke-linecap="round" stroke-linejoin="round" fill="none" opacity="0.12">

    <!-- megafon -->
    <g transform="translate(20,20) scale(2)">
      <path d="M4 10 L18 4 V20 L4 14 Z" />
      <path d="M4 14 L6 21 H10 L9 16" />
      <path d="M18 8 C20 9 21 11 21 13 C21 15 20 17 18 18" />
    </g>

    <!-- chat -->
    <g transform="translate(260,40) scale(2)">
      <path d="M4 8 C4 5 6.5 3 10 3 H16 C19.5 3 22 5.5 22 9 C22 12.5 19.5 15 16 15
      H13 L10 18 V15 H10 C6.5 15 4 12.5 4 9 Z" />
    </g>

    <!-- user -->
    <g transform="translate(80,250) scale(2)">
      <circle cx="13" cy="8" r="4" />
      <path d="M6 19 C6 15.5 9 13 13 13 C17 13 20 15.5 20 19" />
      <circle cx="13" cy="13" r="9" />
    </g>

    <!-- form -->
    <g transform="translate(200,200) scale(2)">
      <rect x="4" y="3" width="18" height="18" rx="2" />
      <line x1="7" y1="8" x2="19" y2="8" />
      <line x1="7" y1="12" x2="17" y2="12" />
      <line x1="7" y1="16" x2="14" y2="16" />
    </g>

    <!-- search -->
    <g transform="translate(300,250) scale(2)">
      <circle cx="11" cy="11" r="5" />
      <line x1="14.5" y1="14.5" x2="19" y2="19" />
    </g>

    <!-- box -->
    <g transform="translate(120,130) scale(2)">
      <rect x="4" y="6" width="18" height="14" rx="2" />
      <path d="M4 10 H22" />
      <path d="M11 6 V10" />
      <path d="M15 6 V10" />
    </g>

  </g>
</svg>
